# xmcd CD database file
#
# Track frame offsets:
#	183
#	8445
#	21068
#	34240
#	57635
#	73015
#	84828
#	104340
#	118450
#	138380
#	149623
#	164305
#	178910
#	191878
#	207555
#	220790
#
# Disc length: 3146 seconds
#
# Revision: 0
# Processed by: cddbd v1.4PL0 Copyright (c) Steve Scherf et al.
# Submitted via: CDex 1.50
#
DISCID=f40c4810
DTITLE=Compilations - Jazz Favourites
DYEAR=1900
DGENRE=Jazz
TTITLE0=Jumpin' at the woodside
TTITLE1=It don't mean a thing if it ain't got swing
TTITLE2=Honeysuckle Rose
TTITLE3=Blue Rondo à la turk
TTITLE4=The Man I Love
TTITLE5=Petite Fleur
TTITLE6=Quincy and the Count
TTITLE7=When The Saints Go Marching In
TTITLE8=Basin Street Blues
TTITLE9=Boulevard
TTITLE10=Girl Talk
TTITLE11=Air Mail Special
TTITLE12=St. Louis Memories
TTITLE13=Puttin' on the Ritz
TTITLE14=Limehouse Blues
TTITLE15=Muskrat Ramble
EXTD=
EXTT0=
EXTT1=
EXTT2=
EXTT3=
EXTT4=
EXTT5=
EXTT6=
EXTT7=
EXTT8=
EXTT9=
EXTT10=
EXTT11=
EXTT12=
EXTT13=
EXTT14=
EXTT15=
PLAYORDER=
